<svg xmlns="http://www.w3.org/2000/svg" width="24" height="24" viewBox="0 0 24 24" fill="none">
  <path fill-rule="evenodd" clip-rule="evenodd" d="M2.99922 3.79922C2.42246 3.79922 1.79922 4.35722 1.79922 5.24922V18.7492C1.79922 19.6412 2.42246 20.1992 2.99922 20.1992H20.9992C21.576 20.1992 22.1992 19.6412 22.1992 18.7492V15.8492H16.9993C14.873 15.8492 13.1493 14.1255 13.1493 11.9992C13.1493 9.87293 14.873 8.14922 16.9993 8.14922H22.1992V5.24922C22.1992 4.35722 21.576 3.79922 20.9992 3.79922H2.99922ZM23.7992 8.14922V5.24922C23.7992 3.65594 22.6316 2.19922 20.9992 2.19922H2.99922C1.36684 2.19922 0.199219 3.65594 0.199219 5.24922V18.7492C0.199219 20.3425 1.36684 21.7992 2.99922 21.7992H20.9992C22.6316 21.7992 23.7992 20.3425 23.7992 18.7492V15.8492H23.8493V8.14922H23.7992ZM15.9993 11.9492C15.9993 11.4798 16.3798 11.0992 16.8493 11.0992H18.1493C18.6187 11.0992 18.9993 11.4798 18.9993 11.9492C18.9993 12.4187 18.6187 12.7992 18.1493 12.7992H16.8493C16.3798 12.7992 15.9993 12.4187 15.9993 11.9492ZM14.8493 11.9992C14.8493 10.8118 15.8119 9.84922 16.9993 9.84922H22.1493V14.1492H16.9993C15.8119 14.1492 14.8493 13.1866 14.8493 11.9992Z" fill="white"/>
</svg>